#!OML:ASF F:\VICON\USERDATA\INSTALL\rory3\rory3.ASF
:FULLY-SPECIFIED
:DEGREES
301
root 3.35559 18.0388 13.1494 196.482 83.1648 199.341
lowerback 11.452 -0.728339 1.07176
upperback 1.08808 -0.645822 2.05337
thorax -5.27368 -0.290507 1.64451
lowerneck -19.0711 -5.74487 -12.6123
upperneck 29.6333 -5.81879 7.0804
head 13.9024 -2.81972 4.01064
rclavicle 1.93567e-014 -1.98785e-014
rhumerus -39.4371 -17.9984 -75.5348
rradius 27.4731
rwrist 7.34381
rhand -16.7289 8.15048
rfingers 7.12502
rthumb 9.49689 -21.6155
lclavicle 1.93567e-014 -1.98785e-014
lhumerus -33.1302 0.563252 87.1162
lradius 35.7856
lwrist -9.64861
lhand -18.3283 24.9634
lfingers 7.12502
lthumb 7.95349 54.7938
rfemur -10.7392 3.10706 25.9772
rtibia 25.8326
rfoot -8.60152 -3.28697
rtoes 12.353
lfemur -6.34991 -2.70476 -16.9967
ltibia 59.5628
lfoot 14.0195 -16.4752
ltoes 12.4291
302
root 3.50367 18.0496 13.1432 197.654 83.4355 200.557
lowerback 11.3012 -0.518107 1.18921
upperback 1.09507 -0.364237 1.9477
thorax -5.18922 -0.156638 1.42101
lowerneck -18.9779 -5.80965 -12.6046
upperneck 29.7633 -5.95396 7.17344
head 13.9592 -2.86422 4.02921
rclavicle 1.68222e-014 1.51076e-014
rhumerus -38.9476 -17.763 -75.9121
rradius 27.4511
rwrist 7.48127
rhand -16.7968 8.37933
rfingers 7.12502
rthumb 9.43145 -21.3896
lclavicle 1.68222e-014 1.51076e-014
lhumerus -33.3954 0.853572 86.882
lradius 35.6162
lwrist -9.55058
lhand -18.2498 24.2739
lfingers 7.12502
lthumb 8.02923 54.1014
rfemur -9.93748 3.30351 26.1604
rtibia 25.4629
rfoot -8.84248 -3.36732
rtoes 12.2871
lfemur -7.53469 -2.16283 -16.8095
ltibia 60.5446
lfoot 11.8341 -15.4866
ltoes 9.13049
303
root 3.64751 18.0564 13.1377 197.86 83.6447 201.05
lowerback 11.4545 -0.35549 1.33534
upperback 1.15419 -0.139522 1.73985
thorax -5.21686 -0.0514346 1.08664
lowerneck -18.8108 -5.85464 -12.5433
upperneck 29.8183 -6.12118 7.36542
head 13.9722 -2.90368 4.07191
rclavicle -1.4884e-014 -3.97569e-016
rhumerus -38.5131 -17.6012 -76.4017
rradius 27.5293
rwrist 7.5292
rhand -16.8618 8.51813
rfingers 7.12502
rthumb 9.36865 -21.2537
lclavicle -1.4884e-014 -3.97569e-016
lhumerus -33.6643 1.09543 86.4897
lradius 35.4914
lwrist -9.30378
lhand -21.0083 28.6195
lfingers 7.12502
lthumb 5.36637 58.5315
rfemur -8.88646 3.53722 26.2913
rtibia 25.1138
rfoot -9.14078 -3.60395
rtoes 11.584
lfemur -8.42948 -1.67896 -16.7589
ltibia 61.3182
lfoot 9.58581 -14.6895
ltoes 4.41625
304
root 3.79161 18.058 13.1325 197.668 83.8632 201.379
lowerback 11.8763 -0.175031 1.34787
upperback 1.26449 0.107813 1.63347
thorax -5.33771 0.0704924 0.930291
lowerneck -18.7263 -5.95725 -12.5461
upperneck 29.8981 -6.28161 7.37685
head 14.0107 -2.97159 4.05158
rclavicle -1.22253e-014 4.57205e-015
rhumerus -38.0354 -17.3425 -76.717
rradius 27.6194
rwrist 7.49809
rhand -16.7339 8.53071
rfingers 7.12502
rthumb 9.49212 -21.2355
lclavicle -1.22253e-014 4.57205e-015
lhumerus -33.9208 1.50512 86.1954
lradius 35.3218
lwrist -9.16881
lhand -18.5874 25.3997
lfingers 7.12502
lthumb 7.70338 55.2393
rfemur -7.59893 3.85494 26.3752
rtibia 24.8136
rfoot -9.57499 -3.71048
rtoes 12.2686
lfemur -9.0071 -1.2244 -16.7462
ltibia 61.9265
lfoot 7.70063 -13.7463
ltoes 1.05608
305
root 3.93518 18.0593 13.1261 198.717 84.1177 202.769
lowerback 12.1238 0.041347 1.33444
upperback 1.30733 0.401094 1.63734
thorax -5.43234 0.215891 0.89407
lowerneck -18.6013 -6.0526 -12.528
upperneck 29.9322 -6.3927 7.2378
head 14.0076 -3.0366 3.97287
rclavicle 3.57812e-015 -5.36719e-015
rhumerus -37.5337 -16.7343 -76.9904
rradius 27.7009
rwrist 7.3175
rhand -16.694 8.40068
rfingers 7.12502
rthumb 9.53062 -21.3638
lclavicle 3.57812e-015 -5.36719e-015
lhumerus -34.2615 1.81448 86.0458
lradius 35.2133
lwrist -8.70956
lhand -18.9463 25.2746
lfingers 7.12502
lthumb 7.35696 55.1267
rfemur -6.56308 4.01114 26.5324
rtibia 24.5548
rfoot -9.9485 -3.63167
rtoes 13.2551
lfemur -9.77244 -0.735464 -16.6385
ltibia 62.4342
lfoot 6.1555 -12.7522
ltoes -0.663903
306
root 4.06852 18.0531 13.1204 200.104 84.1686 204.275
lowerback 12.2557 0.18559 1.42841
upperback 1.26691 0.61079 1.6602
thorax -5.549 0.316681 0.829942
lowerneck -18.4787 -6.11379 -12.6435
upperneck 29.9784 -6.4625 7.2657
head 14.0176 -3.07649 3.99461
rclavicle 6.05051e-015 3.97569e-015
rhumerus -37.0283 -16.1393 -77.2271
rradius 27.7154
rwrist 7.35725
rhand -16.7542 8.36899
rfingers 7.12502
rthumb 9.47249 -21.3981
lclavicle 6.05051e-015 3.97569e-015
lhumerus -34.6506 1.96536 85.9375
lradius 35.2256
lwrist -7.66955
lhand -19.4745 25.3891
lfingers 7.12502
lthumb 6.84707 55.2583
rfemur -5.87966 3.68502 26.7655
rtibia 24.3591
rfoot -10.2536 -3.54046
rtoes 12.2229
lfemur -10.88 -0.460576 -16.4634
ltibia 62.8606
lfoot 4.77162 -11.9322
ltoes -1.41078
307
root 4.19606 18.0433 13.1129 201.071 84.1295 205.218
lowerback 12.3343 0.281953 1.64275
upperback 1.17387 0.765474 1.59363
thorax -5.68798 0.385007 0.612777
lowerneck -18.4477 -6.19044 -12.6667
upperneck 30.1084 -6.57533 7.28927
head 14.0852 -3.12358 3.99287
rclavicle 1.31695e-015 -3.77691e-015
rhumerus -36.518 -15.6806 -77.5464
rradius 27.7889
rwrist 7.30895
rhand -16.6853 8.32339
rfingers 7.12502
rthumb 9.53896 -21.4407
lclavicle 1.31695e-015 -3.77691e-015
lhumerus -35.037 1.98044 85.7421
lradius 35.2593
lwrist -6.50091
lhand -19.9613 25.6673
lfingers 7.12502
lthumb 6.37717 55.5513
rfemur -5.42799 3.21204 26.9569
rtibia 24.228
rfoot -10.5475 -3.44867
rtoes 9.9318
lfemur -12.184 -0.481877 -16.3369
ltibia 63.174
lfoot 3.78418 -10.9895
ltoes 1.09812
308
root 4.33015 18.0356 13.1041 201.798 84.3454 205.937
lowerback 12.3104 0.462247 1.76721
upperback 1.13454 1.01012 1.45221
thorax -5.71121 0.498901 0.352726
lowerneck -18.3994 -6.25135 -12.6098
upperneck 30.2107 -6.69973 7.3279
head 14.1347 -3.1643 3.98087
rclavicle -1.54058e-014 1.35174e-014
rhumerus -35.9743 -15.3191 -77.9476
rradius 27.8934
rwrist 7.11759
rhand -16.1642 8.70742
rfingers 7.12502
rthumb 10.0418 -21.033
lclavicle -1.54058e-014 1.35174e-014
lhumerus -35.3786 2.17732 85.3968
lradius 35.2566
lwrist -5.96276
lhand -19.7885 25.8076
lfingers 7.12502
lthumb 6.54399 55.6865
rfemur -4.95336 3.05297 26.9961
rtibia 24.2065
rfoot -10.9981 -3.31299
rtoes 9.65434
lfemur -13.2974 -0.280607 -16.3457
ltibia 63.2611
lfoot 2.73275 -9.97884
ltoes 3.12519
309
root 4.46757 18.0253 13.0895 203.285 84.6981 207.42
lowerback 12.2226 0.63706 1.87972
upperback 1.12744 1.24633 1.34634
thorax -5.66354 0.610381 0.139342
lowerneck -18.3783 -6.23979 -12.5815
upperneck 30.2654 -6.70601 7.36815
head 14.1551 -3.15742 3.99436
rclavicle -1.91454e-014 3.97569e-016
rhumerus -35.3705 -14.9361 -78.3291
rradius 27.9703
rwrist 7.0044
rhand -14.4985 9.70009
rfingers 7.12502
rthumb 11.6484 -19.9561
lclavicle -1.91454e-014 3.97569e-016
lhumerus -35.6669 2.844 85.0005
lradius 35.1691
lwrist -5.66362
lhand -19.2157 25.6159
lfingers 7.12502
lthumb 7.09698 55.4769
rfemur -4.46879 3.18085 27.0034
rtibia 24.2737
rfoot -11.613 -3.16723
rtoes 11.1664
lfemur -14.3014 0.195873 -16.3847
ltibia 63.13
lfoot 1.3048 -9.02016
ltoes 1.63932
310
root 4.60556 18.016 13.0699 207.253 84.9732 211.392
lowerback 12.183 0.796294 2.23662
upperback 1.07026 1.50326 1.32463
thorax -5.68974 0.726577 -0.127312
lowerneck -18.2662 -6.23428 -12.6825
upperneck 30.3106 -6.69109 7.42311
head 14.1562 -3.15554 4.04084
rclavicle -1.5294e-014 -1.27222e-014
rhumerus -34.8543 -14.3969 -78.5608
rradius 28.0935
rwrist 6.93034
rhand -16.6371 8.72787
rfingers 7.12502
rthumb 9.58547 -21.0341
lclavicle -1.5294e-014 -1.27222e-014
lhumerus -36.1535 3.38351 84.7459
lradius 35.1031
lwrist -4.76574
lhand -19.2023 24.8543
lfingers 7.12502
lthumb 7.10991 54.7149
rfemur -3.97822 3.18821 27.1905
rtibia 24.4026
rfoot -12.2371 -2.78151
rtoes 12.3531
lfemur -15.2216 0.646018 -16.2233
ltibia 62.7926
lfoot -0.00552995 -8.18942
ltoes -0.0350054
311
root 4.74657 18.0097 13.0534 211.552 85.2619 215.742
lowerback 12.1486 1.00651 2.5462
upperback 1.04607 1.82118 1.29942
thorax -5.6804 0.874528 -0.380534
lowerneck -18.1367 -6.27956 -12.8398
upperneck 30.3069 -6.7484 7.51873
head 14.1464 -3.18652 4.09865
rclavicle 6.70898e-015 1.53064e-014
rhumerus -34.3711 -13.8445 -78.7651
rradius 28.2599
rwrist 6.74557
rhand -15.06 9.63396
rfingers 7.12502
rthumb 11.1069 -20.0521
lclavicle 6.70898e-015 1.53064e-014
lhumerus -36.5767 3.63973 84.5743
lradius 35.0619
lwrist -3.4238
lhand -19.722 24.3407
lfingers 7.12502
lthumb 6.60819 54.2175
rfemur -3.41333 3.34106 27.3682
rtibia 24.5452
rfoot -12.8578 -2.44453
rtoes 14.0591
lfemur -16.0128 1.10614 -16.0438
ltibia 62.2913
lfoot -1.14959 -7.64978
ltoes -0.628788
312
root 4.8809 17.9942 13.0403 214.33 85.4448 218.614
lowerback 12.2066 1.14976 2.73363
upperback 1.06269 2.03602 1.25498
thorax -5.68214 0.975176 -0.569475
lowerneck -18.1237 -6.31585 -12.9359
upperneck 30.3053 -6.78043 7.55064
head 14.1538 -3.20731 4.12246
rclavicle 1.27409e-014 1.17283e-014
rhumerus -33.7789 -13.422 -79.0716
rradius 28.4605
rwrist 6.50961
rhand -16.5674 8.91305
rfingers 7.12502
rthumb 9.65272 -20.8458
lclavicle 1.27409e-014 1.17283e-014
lhumerus -36.911 3.91777 84.3062
lradius 35.3211
lwrist -3.13195
lhand -18.8569 26.6873
lfingers 7.12502
lthumb 7.4433 56.5364
rfemur -2.86713 3.48972 27.4924
rtibia 24.666
rfoot -13.3139 -2.35062
rtoes 14.414
lfemur -16.7944 1.37707 -15.9662
ltibia 61.6833
lfoot -2.22601 -7.11604
ltoes -1.36705
313
root 5.00381 17.9771 13.0268 216.169 85.2878 220.524
lowerback 12.3842 1.19556 3.11582
upperback 1.03934 2.15492 1.20903
thorax -5.78702 1.02201 -0.85755
lowerneck -18.0138 -6.31373 -12.8128
upperneck 30.2105 -6.8002 7.46214
head 14.0805 -3.21429 4.05873
rclavicle 1.83938e-014 -1.02374e-014
rhumerus -33.2383 -13.1164 -79.3489
rradius 28.778
rwrist 6.19906
rhand -17.0673 8.52936
rfingers 7.12502
rthumb 9.17038 -21.2512
lclavicle 1.83938e-014 -1.02374e-014
lhumerus -37.2077 4.24739 83.9059
lradius 35.1734
lwrist -3.08453
lhand -18.2745 25.749
lfingers 7.12502
lthumb 8.00542 55.5774
rfemur -2.33453 3.62663 27.7593
rtibia 24.7223
rfoot -13.5713 -2.43743
rtoes 13.688
lfemur -17.723 1.28561 -15.7843
ltibia 60.9813
lfoot -2.88574 -6.6039
ltoes -0.671145
